<?xml version="1.0" standalone="no"?>
<!DOCTYPE svg PUBLIC "-//W3C//DTD SVG 20010904//EN"
 "http://www.w3.org/TR/2001/REC-SVG-20010904/DTD/svg10.dtd">
<svg version="1.0" xmlns="http://www.w3.org/2000/svg"
 width="804.000000pt" height="804.000000pt" viewBox="0 0 804.000000 804.000000"
 preserveAspectRatio="xMidYMid meet">
<metadata>
Created by potrace 1.11, written by Peter Selinger 2001-2013
</metadata>
<g transform="translate(0.000000,804.000000) scale(0.100000,-0.100000)"
fill="#000000" stroke="none">
<path d="M4416 6230 c-53 -16 -96 -73 -96 -128 0 -25 -3 -29 -23 -25 -37 7
-102 -15 -135 -45 -40 -38 -59 -100 -42 -141 14 -36 59 -55 96 -41 21 8 25 16
22 42 -3 32 -28 53 -28 24 0 -9 -4 -16 -10 -16 -14 0 -12 22 5 44 10 14 21 17
41 12 23 -6 25 -10 20 -39 -3 -18 -9 -56 -12 -84 -4 -29 -8 -53 -10 -53 -1 0
-24 13 -51 30 -26 16 -72 35 -101 42 -44 11 -54 17 -58 38 -12 55 -37 111 -54
120 -26 14 -70 12 -99 -4 -29 -16 -51 -11 -51 13 1 14 3 13 15 -3 14 -18 15
-18 21 -1 8 21 -7 49 -29 53 -19 4 -57 -32 -57 -53 0 -8 8 -23 18 -33 18 -18
18 -20 -5 -46 -26 -31 -30 -58 -9 -75 21 -17 70 -10 74 11 2 13 -2 15 -20 11
-23 -6 -23 -6 -4 15 23 26 21 26 40 6 24 -23 19 -60 -13 -105 -17 -22 -42 -71
-56 -110 -15 -38 -31 -69 -35 -69 -5 0 -16 10 -25 23 -17 22 -17 21 -13 -15 2
-22 -1 -39 -7 -39 -5 -1 -19 -2 -30 -3 -15 -1 -20 -7 -18 -28 1 -16 -1 -28 -5
-28 -4 0 -13 -14 -21 -31 -12 -27 -11 -33 2 -46 12 -13 13 -21 4 -40 -10 -23
-8 -28 20 -53 17 -16 64 -39 103 -51 39 -13 76 -31 80 -40 5 -8 12 -38 15 -65
4 -38 2 -54 -12 -71 l-18 -23 -100 55 c-55 31 -152 79 -215 107 -126 55 -173
80 -270 144 -103 67 -449 234 -485 234 -22 0 -57 -18 -118 -61 -89 -61 -103
-79 -66 -79 11 0 19 -5 17 -12 -2 -6 -87 -80 -189 -164 l-184 -152 -14 49 c-8
27 -17 49 -21 49 -4 0 -23 -20 -41 -44 -34 -44 -35 -45 -102 -48 l-67 -3 35
-52 35 -52 -22 -56 c-11 -30 -19 -57 -16 -60 2 -3 30 3 61 12 l57 16 49 -41
c56 -47 61 -44 61 39 0 49 0 49 57 86 l58 37 -35 13 c-19 8 -43 17 -54 21 -15
6 16 36 174 165 105 86 198 157 207 157 15 0 68 36 113 77 l25 22 135 -115
c158 -136 242 -195 365 -257 50 -25 125 -66 168 -91 43 -26 124 -70 180 -98
152 -75 157 -80 157 -138 0 -26 -9 -67 -20 -91 -37 -81 -20 -156 44 -198 14
-10 52 -53 84 -97 33 -43 102 -123 156 -176 53 -53 104 -114 114 -135 14 -32
17 -71 18 -238 0 -155 4 -209 16 -240 32 -82 98 -202 159 -290 79 -111 308
-345 367 -375 41 -20 45 -20 69 -5 24 16 25 21 20 74 -3 31 -8 64 -12 73 -5
13 8 9 51 -17 58 -35 114 -52 133 -40 19 11 12 82 -14 151 -14 36 -25 68 -25
71 0 12 74 -49 155 -127 132 -127 282 -260 297 -261 7 -1 49 -1 93 0 90 3 225
-23 505 -95 213 -56 273 -76 371 -125 125 -62 386 -169 414 -169 31 0 43 24
24 47 -8 9 -38 34 -66 55 -52 38 -144 151 -177 216 -23 44 -37 48 -106 27 -59
-18 -60 -18 -117 4 -32 12 -99 46 -150 76 -109 65 -307 157 -379 175 l-51 13
134 107 c106 86 163 122 271 176 201 101 351 192 405 247 46 47 56 74 26 71
-8 -1 -68 -18 -134 -38 -115 -36 -122 -37 -180 -25 -86 17 -136 17 -146 -1 -5
-8 -13 -34 -19 -56 -9 -38 -16 -45 -79 -78 -37 -19 -132 -62 -209 -95 -164
-68 -222 -103 -285 -170 l-46 -49 -116 185 c-64 102 -115 186 -113 188 2 2 41
-1 87 -7 87 -10 166 -4 177 13 17 29 -25 86 -136 182 l-55 48 80 -6 c142 -11
169 21 95 114 -67 84 -180 166 -346 250 -85 42 -92 48 -74 59 64 40 -48 209
-192 291 -45 26 -47 29 -26 34 13 3 111 9 219 13 l195 7 95 -31 c105 -34 230
-64 237 -57 10 10 -9 36 -33 45 -14 6 -37 15 -51 20 -15 6 -25 13 -22 15 3 3
45 10 94 16 49 6 92 16 96 23 8 12 -32 17 -282 35 -332 23 -561 56 -701 102
l-66 22 23 35 c43 63 90 260 82 342 l-3 35 -58 3 c-45 2 -70 -3 -111 -21 l-54
-25 -6 30 c-3 17 -6 95 -6 174 0 168 -3 172 -79 95 -82 -82 -157 -268 -187
-466 -7 -50 -9 -51 -62 -30 -64 27 -130 106 -150 178 -11 40 0 59 21 37 9 -10
9 -11 0 -6 -9 5 -13 0 -13 -14 0 -25 25 -37 45 -20 36 30 7 80 -44 80 -12 0
-21 5 -21 10 0 6 40 10 99 10 120 0 151 16 194 99 35 70 36 142 3 246 -13 41
-23 75 -21 75 2 0 27 -11 57 -25 87 -41 200 -28 241 27 28 38 38 107 25 175
-14 77 -12 112 7 133 49 54 145 15 127 -52 -5 -20 -32 -31 -56 -22 -23 9 -20
35 4 41 28 7 20 27 -12 31 -33 4 -58 -22 -58 -59 0 -45 31 -69 89 -69 62 0
102 31 127 96 20 54 9 106 -31 144 -36 34 -117 39 -178 12 l-46 -20 -24 46
c-36 69 -111 103 -181 82z m-15 -124 c-9 -11 -7 -15 11 -19 16 -5 20 -9 12
-17 -6 -6 -18 -8 -27 -4 -20 7 -23 40 -4 47 19 8 20 8 8 -7z m89 -40 c0 -24
-41 -87 -77 -119 -20 -18 -21 -18 -24 20 -4 37 -3 39 22 35 36 -5 72 33 67 70
-3 15 -1 25 4 22 4 -3 8 -15 8 -28z m-1770 -511 c-7 -8 -16 -12 -21 -9 -13 8
-1 24 18 24 13 0 13 -3 3 -15z m1851 -860 l34 -14 -65 0 c-61 0 -64 1 -40 14
31 18 31 18 71 0z m-16 -295 l110 -51 -55 6 c-70 7 -142 43 -205 101 l-50 46
45 -25 c25 -14 95 -49 155 -77z"/>
<path d="M2081 5579 c-13 -11 -31 -17 -39 -14 -7 3 -24 8 -37 11 -22 5 -22 4
-12 -34 9 -35 8 -43 -12 -68 l-23 -29 39 -3 c28 -2 45 -11 65 -34 25 -29 28
-30 33 -12 17 52 26 63 54 69 39 8 39 18 1 45 -23 17 -30 29 -30 56 0 39 -6
41 -39 13z"/>
<path d="M2407 5569 c-9 -6 -26 -7 -37 -4 -16 5 -19 2 -18 -22 1 -15 -2 -36
-6 -45 -6 -14 -3 -18 14 -18 13 0 29 -8 37 -17 11 -13 16 -15 20 -5 6 16 29
39 45 45 10 4 8 9 -4 20 -10 8 -18 24 -18 36 0 23 -6 25 -33 10z"/>
<path d="M2689 5335 c-12 -12 -21 -14 -42 -6 -30 12 -30 11 -18 -21 6 -17 5
-29 -5 -43 -20 -28 -17 -38 10 -31 19 5 28 0 42 -21 l18 -28 11 29 c7 16 25
34 40 40 l28 12 -26 17 c-17 11 -27 26 -27 42 0 29 -9 32 -31 10z"/>
<path d="M2994 5229 c-3 -6 -17 -8 -30 -5 -20 5 -23 3 -22 -21 1 -16 -2 -36
-6 -45 -7 -15 -3 -18 17 -18 14 0 27 -7 31 -15 7 -20 26 -19 26 0 0 9 11 21
25 27 28 13 32 23 10 32 -8 3 -15 17 -15 31 0 26 -23 35 -36 14z"/>
<path d="M1844 5194 c-16 -11 -28 -12 -48 -4 l-28 10 7 -38 c5 -29 2 -42 -9
-52 -24 -19 -19 -30 14 -30 21 0 38 -9 54 -27 l24 -27 6 31 c5 23 15 34 37 42
36 12 37 23 4 41 -18 9 -25 22 -25 42 0 31 -6 33 -36 12z"/>
<path d="M2486 5131 c-3 -5 -16 -7 -28 -3 -18 4 -20 2 -16 -16 4 -12 2 -25 -3
-28 -16 -9 -10 -24 10 -24 10 0 21 -7 25 -15 7 -20 26 -19 26 1 0 9 9 18 20
21 24 6 26 21 5 29 -8 4 -15 15 -15 25 0 20 -15 26 -24 10z"/>
<path d="M3240 5016 c-8 -11 -18 -12 -36 -5 -36 13 -36 12 -29 -20 4 -20 1
-38 -10 -55 -17 -26 -17 -26 12 -26 17 0 38 -9 48 -20 22 -25 35 -26 35 -2 0
23 19 42 42 42 24 0 23 17 -2 32 -12 8 -20 24 -20 40 0 31 -20 37 -40 14z"/>
<path d="M2674 5009 c-3 -6 -17 -8 -30 -5 -20 5 -23 3 -22 -21 1 -16 -2 -36
-6 -45 -6 -14 -3 -18 14 -18 13 0 29 -8 37 -17 11 -13 16 -15 20 -5 6 16 29
39 45 46 10 3 8 8 -4 16 -10 6 -18 22 -18 35 0 26 -23 35 -36 14z"/>
<path d="M3595 4866 c-23 -19 -35 -22 -53 -15 -44 17 -51 12 -39 -26 9 -31 8
-39 -11 -65 -12 -16 -22 -32 -22 -35 0 -3 18 -5 39 -5 32 0 44 -6 64 -32 l25
-31 13 41 c9 33 18 42 40 47 41 9 43 20 12 45 -20 15 -30 34 -33 61 l-5 39
-30 -24z"/>
<path d="M3019 4834 c-10 -12 -23 -14 -51 -10 l-37 6 11 -30 c8 -25 7 -34 -6
-49 -23 -25 -20 -31 13 -31 20 0 34 -8 45 -25 22 -33 32 -32 39 4 5 22 13 31
37 36 37 8 38 17 5 35 -19 10 -25 21 -25 47 0 36 -10 42 -31 17z"/>
<path d="M2336 4765 c-13 -10 -25 -11 -43 -4 -14 5 -28 8 -30 6 -2 -2 1 -16 6
-30 7 -18 6 -30 -4 -43 -21 -27 -18 -34 10 -34 16 0 35 -11 49 -27 l24 -27 7
32 c5 26 13 34 36 39 36 7 37 16 4 33 -18 9 -25 22 -25 42 0 31 -6 34 -34 13z"/>
<path d="M1924 4759 c-3 -6 -17 -8 -31 -4 -21 5 -24 3 -18 -14 3 -11 1 -29 -5
-41 -9 -16 -8 -20 6 -20 10 0 26 -8 36 -17 18 -16 19 -16 24 4 3 12 16 24 27
27 21 6 21 7 5 20 -10 7 -18 23 -18 35 0 22 -14 28 -26 10z"/>
<path d="M3207 4648 c-25 -18 -33 -19 -65 -10 -20 6 -38 10 -40 8 -2 -2 3 -19
11 -38 14 -33 13 -37 -10 -67 l-24 -31 40 0 c33 0 43 -5 61 -30 27 -39 36 -38
44 3 5 29 12 36 48 47 l43 12 -30 24 c-17 13 -33 24 -37 24 -4 0 -8 18 -10 39
l-3 40 -28 -21z"/>
<path d="M2646 4609 c-25 -20 -33 -21 -67 -12 -43 11 -44 10 -28 -35 9 -27 8
-35 -11 -59 l-22 -28 39 -3 c31 -2 43 -9 57 -32 22 -39 32 -38 46 4 9 27 20
38 48 47 l36 12 -31 26 c-23 19 -32 36 -35 65 l-3 38 -29 -23z"/>
<path d="M3514 4539 c-3 -6 -17 -8 -31 -4 -23 5 -25 4 -19 -19 3 -14 2 -28 -4
-31 -16 -10 -12 -25 7 -25 9 0 24 -7 34 -16 16 -14 18 -14 24 5 3 11 15 23 26
26 19 6 19 8 5 24 -9 10 -16 25 -16 34 0 19 -15 23 -26 6z"/>
<path d="M3840 4480 c-8 -5 -25 -7 -37 -4 -21 6 -22 3 -17 -24 4 -17 1 -32 -5
-36 -19 -12 -12 -26 14 -26 13 0 28 -7 33 -16 10 -19 32 -11 32 11 0 8 12 18
27 21 l26 7 -21 18 c-12 9 -22 27 -22 38 0 23 -7 26 -30 11z"/>
<path d="M2947 4429 c-9 -6 -27 -7 -38 -4 -18 6 -20 4 -14 -14 3 -11 1 -29 -5
-41 -9 -17 -8 -20 11 -20 12 0 28 -8 35 -17 13 -17 14 -17 20 4 3 11 15 24 27
27 19 5 20 7 5 23 -9 10 -18 26 -19 35 -3 13 -8 15 -22 7z"/>
<path d="M2090 4412 c-17 -13 -31 -17 -45 -11 -33 13 -37 10 -30 -21 5 -21 2
-39 -9 -55 -22 -34 -20 -38 13 -30 25 5 33 2 46 -19 23 -34 34 -33 42 4 3 18
12 30 22 30 9 0 23 5 31 10 13 8 11 13 -12 32 -15 13 -28 35 -30 52 l-3 28
-25 -20z"/>
<path d="M3247 4325 c-10 -7 -27 -10 -39 -7 -18 4 -20 2 -16 -16 3 -11 -1 -30
-9 -41 -13 -20 -12 -21 11 -21 15 0 30 -8 36 -20 14 -26 30 -26 30 0 0 13 10
24 27 31 l28 10 -22 17 c-12 9 -23 27 -25 39 -3 19 -5 20 -21 8z"/>
<path d="M2471 4317 c-9 -12 -21 -15 -39 -10 -23 5 -24 4 -19 -18 4 -15 0 -30
-10 -41 -15 -17 -14 -18 10 -18 16 0 30 -8 37 -20 14 -27 27 -25 34 4 3 13 16
26 28 30 l23 6 -22 18 c-12 9 -23 28 -25 41 -3 22 -4 23 -17 8z"/>
<path d="M2785 4204 c-12 -9 -30 -12 -48 -8 -28 6 -29 5 -23 -23 4 -18 1 -35
-8 -48 -22 -29 -19 -38 11 -30 21 5 31 1 48 -21 l22 -27 10 30 c8 21 20 33 40
38 l28 7 -27 23 c-14 12 -28 34 -30 48 -3 24 -5 25 -23 11z"/>
<path d="M3743 4129 c-19 -19 -24 -20 -58 -9 -20 7 -38 10 -40 8 -3 -2 1 -20
7 -40 9 -32 8 -40 -11 -67 l-22 -31 38 0 c31 0 43 -6 65 -32 l27 -33 11 30 c6
17 13 36 15 43 2 6 12 12 22 12 10 0 25 5 33 10 12 8 10 14 -17 36 -26 20 -33
33 -33 60 0 39 -7 42 -37 13z"/>
<path d="M2191 4071 c-7 -5 -22 -6 -33 -3 -16 4 -18 1 -13 -21 4 -14 2 -28 -4
-31 -19 -12 -12 -29 9 -23 12 3 24 -1 30 -11 9 -15 12 -15 26 6 9 12 23 22 32
22 13 0 13 2 -1 18 -10 10 -17 26 -17 35 0 19 -8 21 -29 8z"/>
<path d="M4040 4035 c-12 -14 -24 -14 -67 2 -10 4 -10 -2 -2 -25 8 -25 7 -36
-6 -56 -17 -26 -17 -26 11 -26 19 0 36 -9 51 -27 l22 -28 11 32 c7 20 20 33
36 37 29 8 31 22 4 36 -13 7 -20 21 -20 40 0 33 -19 40 -40 15z"/>
<path d="M3309 3994 c-9 -11 -22 -14 -46 -9 -37 7 -37 6 -24 -29 7 -18 6 -28
-5 -36 -24 -21 -17 -40 16 -40 19 0 33 -7 40 -20 14 -27 27 -25 34 5 4 15 17
30 31 35 30 11 31 21 5 38 -13 8 -20 23 -20 42 0 33 -11 38 -31 14z"/>
<path d="M2325 3944 c-13 -10 -31 -13 -52 -9 -32 6 -33 5 -23 -21 8 -20 7 -32
-5 -50 -20 -32 -19 -34 14 -34 20 0 34 -8 46 -27 l18 -27 16 35 c10 21 24 35
39 37 29 4 28 18 -2 38 -15 9 -26 27 -28 44 -3 27 -4 28 -23 14z"/>
<path d="M2727 3889 c-9 -6 -27 -7 -38 -4 -18 6 -20 4 -14 -14 3 -11 1 -29 -5
-41 -9 -18 -8 -20 14 -20 13 0 26 -7 30 -15 8 -21 26 -19 26 4 0 11 9 21 22
24 20 6 21 7 6 24 -9 10 -18 26 -19 35 -3 13 -8 15 -22 7z"/>
<path d="M3007 3809 c-23 -18 -32 -19 -59 -10 -39 14 -43 10 -29 -31 10 -28 9
-36 -9 -60 -11 -15 -20 -30 -20 -33 0 -3 17 -5 38 -5 31 0 41 -5 55 -30 23
-38 34 -38 42 -1 7 35 20 47 58 56 35 9 34 16 -3 38 -25 15 -30 24 -30 58 0
45 -4 46 -43 18z"/>
<path d="M3964 3789 c-3 -6 -17 -8 -31 -4 -21 5 -24 3 -18 -14 3 -11 1 -29 -5
-41 -9 -17 -8 -20 11 -20 12 0 28 -8 35 -17 13 -17 14 -17 20 4 3 11 15 24 27
27 20 5 20 6 4 24 -9 10 -17 26 -17 35 0 19 -15 23 -26 6z"/>
<path d="M2575 3710 c-3 -6 -17 -7 -31 -4 -23 6 -24 4 -19 -19 4 -14 2 -28 -4
-31 -19 -12 -12 -26 14 -26 13 0 29 -8 34 -17 10 -17 11 -16 17 4 3 12 15 25
25 28 23 8 25 21 4 29 -8 3 -15 15 -15 26 0 21 -14 27 -25 10z"/>
<path d="M3644 3699 c-3 -6 -17 -8 -30 -5 -22 6 -24 4 -18 -18 3 -13 1 -27 -5
-30 -18 -12 -12 -26 10 -26 12 0 28 -8 35 -17 13 -17 14 -17 20 4 3 12 15 25
26 29 18 5 18 7 4 23 -9 10 -16 25 -16 34 0 19 -15 23 -26 6z"/>
<path d="M2327 3643 c-5 -7 -19 -13 -33 -13 -17 0 -24 -6 -24 -19 0 -11 -3
-26 -6 -35 -4 -11 0 -16 14 -16 11 0 22 -7 26 -15 7 -20 26 -19 26 1 0 9 9 18
20 21 24 6 25 16 6 33 -8 6 -16 21 -18 33 -2 15 -5 18 -11 10z"/>
<path d="M3376 3625 c-11 -8 -30 -12 -47 -8 -28 5 -29 4 -23 -26 5 -23 2 -37
-11 -51 -18 -20 -17 -20 13 -20 22 0 36 -8 51 -27 l20 -28 11 33 c7 17 17 32
23 32 7 0 19 5 27 10 13 8 12 12 -7 25 -15 11 -23 26 -23 46 0 32 -6 35 -34
14z"/>
<path d="M4154 3569 c-3 -6 -19 -9 -35 -7 -26 4 -29 2 -28 -21 1 -14 -2 -34
-6 -43 -5 -13 -2 -18 11 -18 10 0 28 -9 40 -21 l22 -20 6 24 c3 14 15 27 28
30 21 6 21 7 5 25 -9 10 -17 28 -17 40 0 23 -14 29 -26 11z"/>
<path d="M2827 3483 c-5 -7 -20 -13 -34 -13 -20 0 -24 -4 -20 -20 3 -11 1 -23
-4 -26 -16 -9 -10 -24 10 -24 10 0 21 -7 25 -15 7 -20 26 -19 26 1 0 9 9 18
20 21 24 6 25 16 6 33 -8 6 -16 21 -18 33 -2 15 -5 18 -11 10z"/>
<path d="M3154 3429 c-3 -6 -17 -8 -30 -5 -20 5 -23 3 -22 -21 1 -16 -2 -36
-6 -45 -6 -14 -3 -18 14 -18 13 0 29 -8 37 -17 11 -13 16 -15 20 -5 2 7 11 19
19 26 7 8 19 17 26 19 10 4 8 9 -4 20 -10 8 -18 24 -18 36 0 22 -24 29 -36 10z"/>
<path d="M3950 3425 c-9 -11 -22 -14 -47 -9 -33 6 -33 6 -23 -21 8 -22 7 -31
-5 -45 -22 -24 -19 -30 13 -30 20 0 33 -7 42 -25 18 -33 27 -32 35 4 5 23 14
31 38 37 l31 7 -27 21 c-17 14 -27 31 -27 49 0 30 -11 35 -30 12z"/>
<path d="M2490 3375 c-9 -11 -22 -14 -47 -9 -33 6 -33 6 -23 -20 8 -21 6 -33
-6 -51 -16 -24 -16 -25 10 -25 17 0 36 -10 51 -27 l24 -28 7 32 c5 25 13 33
37 39 l31 6 -27 24 c-16 14 -27 33 -27 49 0 28 -12 32 -30 10z"/>
<path d="M4276 3196 c-26 -20 -34 -22 -63 -13 -41 13 -46 9 -31 -31 11 -28 10
-35 -10 -61 -12 -17 -22 -33 -22 -36 0 -3 18 -5 39 -5 32 0 44 -6 64 -32 l25
-31 13 41 c9 33 18 42 40 47 41 9 43 21 10 45 -23 16 -31 30 -33 60 l-3 40
-29 -24z"/>
<path d="M3489 3164 c-9 -11 -22 -14 -46 -9 -34 6 -37 3 -24 -30 6 -14 2 -28
-11 -45 l-20 -25 36 -3 c23 -2 40 -10 46 -23 14 -26 28 -24 36 5 4 16 17 29
37 36 l32 11 -27 22 c-18 15 -28 32 -28 50 0 30 -11 35 -31 11z"/>
<path d="M3196 3151 c-3 -5 -16 -7 -28 -3 -17 4 -20 2 -16 -15 3 -11 1 -28 -4
-37 -7 -12 -5 -16 8 -16 9 0 22 -7 29 -16 10 -15 14 -14 40 11 25 26 26 30 11
40 -9 7 -16 20 -16 29 0 17 -15 22 -24 7z"/>
<path d="M2736 3122 c-5 -9 -20 -12 -37 -10 -26 4 -29 2 -27 -23 1 -15 -4 -34
-11 -43 -12 -14 -10 -16 13 -16 15 0 31 -8 38 -20 16 -26 28 -26 28 0 0 13 10
24 28 31 l27 11 -22 17 c-11 10 -23 29 -25 42 -2 18 -5 20 -12 11z"/>
<path d="M3894 3109 c-3 -6 -17 -8 -30 -5 -22 6 -24 4 -18 -18 3 -13 1 -27 -5
-30 -17 -11 -13 -26 6 -26 9 0 24 -7 34 -16 16 -14 18 -14 24 5 3 11 15 23 26
26 19 6 19 8 5 24 -9 10 -16 25 -16 34 0 19 -15 23 -26 6z"/>
<path d="M4610 3070 c-8 -5 -26 -10 -39 -10 -17 0 -22 -4 -17 -16 3 -8 1 -24
-4 -35 -9 -15 -7 -19 6 -19 10 0 26 -8 36 -17 18 -16 19 -16 24 4 3 12 15 24
27 27 20 5 20 6 5 18 -9 7 -18 23 -20 35 -2 17 -6 20 -18 13z"/>
<path d="M5147 3040 c-24 -19 -32 -20 -59 -11 -46 16 -48 14 -34 -27 12 -34
12 -40 -5 -61 -27 -33 -24 -41 16 -41 27 0 39 -7 57 -30 12 -16 25 -30 28 -30
4 0 11 17 16 38 8 32 14 38 47 46 20 5 37 12 37 15 0 3 -16 16 -35 28 -27 18
-34 30 -37 59 l-3 36 -28 -22z"/>
<path d="M2977 2960 c-24 -19 -32 -20 -59 -11 -46 16 -48 14 -34 -27 12 -34
12 -40 -5 -61 -27 -33 -24 -41 16 -41 27 0 39 -7 57 -30 12 -16 25 -30 28 -30
4 0 11 17 16 37 8 32 14 39 47 46 20 5 37 12 37 15 0 4 -16 17 -35 29 -27 18
-34 30 -37 59 l-3 36 -28 -22z"/>
<path d="M3364 2949 c-3 -6 -17 -8 -31 -4 -23 5 -25 4 -19 -19 3 -14 2 -28 -4
-31 -16 -10 -12 -25 7 -25 9 0 24 -7 34 -16 16 -14 18 -14 24 5 3 11 15 23 26
26 19 6 19 8 5 24 -9 10 -16 25 -16 34 0 19 -15 23 -26 6z"/>
<path d="M3736 2931 c-3 -5 -16 -7 -28 -3 -17 4 -20 2 -15 -12 4 -10 2 -26 -3
-37 -9 -16 -7 -19 9 -19 11 0 25 -8 31 -17 10 -17 12 -16 26 5 9 12 23 22 32
22 13 0 13 2 -1 18 -10 10 -17 26 -17 35 0 18 -25 23 -34 8z"/>
<path d="M4253 2845 c-16 -11 -28 -13 -48 -5 -26 10 -26 9 -20 -20 5 -21 2
-39 -9 -55 -16 -25 -16 -25 13 -25 20 0 35 -8 50 -27 l20 -28 11 33 c8 20 21
34 36 38 29 7 31 20 4 34 -13 7 -20 21 -20 40 0 34 -6 36 -37 15z"/>
<path d="M4679 2834 c-9 -11 -22 -14 -46 -9 -37 7 -37 6 -24 -29 7 -18 6 -28
-5 -36 -24 -21 -17 -40 16 -40 19 0 33 -7 40 -20 14 -26 28 -25 32 2 2 13 15
29 31 36 32 16 34 23 7 40 -13 8 -20 23 -20 42 0 33 -11 38 -31 14z"/>
<path d="M5479 2835 c-12 -13 -21 -14 -44 -5 -27 10 -27 10 -21 -20 4 -21 0
-39 -10 -56 -16 -24 -16 -24 14 -24 21 0 36 -8 51 -27 l20 -28 7 32 c5 25 13
33 35 38 36 8 37 18 4 39 -16 10 -25 26 -25 41 0 29 -9 32 -31 10z"/>
<path d="M5030 2830 c-8 -5 -25 -10 -37 -10 -15 0 -21 -5 -17 -14 3 -8 1 -24
-6 -35 -9 -17 -8 -21 6 -21 10 0 26 -8 36 -17 18 -16 19 -16 24 4 3 12 16 24
27 27 20 6 21 7 5 19 -9 7 -18 23 -20 35 -2 16 -7 19 -18 12z"/>
<path d="M3295 2740 c-3 -6 -17 -7 -30 -4 -20 5 -23 3 -18 -14 2 -11 0 -29 -6
-41 -10 -19 -9 -21 13 -21 14 0 30 -8 35 -17 10 -17 11 -16 17 4 3 12 15 25
26 29 18 5 18 7 4 23 -9 10 -16 25 -16 34 0 19 -15 23 -25 7z"/>
<path d="M5855 2716 c-12 -9 -31 -12 -48 -9 -25 5 -27 4 -19 -18 7 -17 5 -31
-6 -46 -14 -22 -13 -23 11 -23 15 0 32 -9 41 -21 15 -22 36 -18 36 7 0 8 12
19 26 25 l27 10 -21 22 c-11 12 -22 32 -24 45 -3 21 -5 22 -23 8z"/>
<path d="M6182 2714 c-15 -10 -32 -13 -52 -9 -32 7 -39 -5 -21 -34 7 -10 3
-24 -10 -42 -25 -36 -24 -39 14 -32 28 4 35 1 46 -21 19 -34 30 -33 42 3 7 21
19 32 40 36 36 8 37 17 4 35 -19 10 -25 21 -25 47 0 37 -6 40 -38 17z"/>
<path d="M3583 2705 c-16 -12 -28 -13 -48 -5 -27 10 -27 10 -21 -23 4 -22 1
-40 -10 -55 -15 -21 -14 -22 15 -22 21 0 35 -7 47 -25 18 -28 34 -25 34 6 0
14 10 25 30 32 35 13 38 22 10 37 -13 7 -20 21 -20 40 0 34 -6 36 -37 15z"/>
<path d="M3987 2699 c-9 -6 -27 -7 -38 -4 -18 6 -20 4 -14 -14 3 -11 1 -29 -5
-41 -9 -17 -8 -20 11 -20 12 0 28 -8 35 -17 13 -17 14 -17 20 4 3 11 15 24 27
27 19 5 20 7 5 23 -9 10 -18 26 -19 35 -3 13 -8 15 -22 7z"/>
<path d="M5226 2682 c-5 -9 -20 -12 -38 -10 -27 4 -28 3 -23 -23 3 -15 1 -30
-4 -34 -19 -11 -12 -25 13 -25 13 0 26 -7 30 -15 7 -20 26 -19 26 0 0 9 11 21
25 27 25 11 25 12 6 32 -10 12 -21 30 -23 41 -3 15 -5 17 -12 7z"/>
<path d="M5600 2604 c-10 -11 -23 -14 -51 -9 l-39 7 11 -32 c9 -25 8 -34 -5
-49 -26 -28 -20 -44 13 -36 23 5 31 1 45 -20 22 -33 33 -32 41 4 5 22 14 31
36 36 36 8 37 18 4 39 -17 11 -25 26 -25 46 0 33 -11 38 -30 14z"/>
<path d="M6513 2558 c-20 -20 -25 -20 -63 -9 -23 7 -44 10 -47 8 -2 -3 2 -21
10 -40 14 -33 14 -37 -9 -71 l-25 -36 46 0 c25 0 45 -3 45 -7 0 -5 11 -21 24
-38 l24 -30 13 43 c10 36 18 44 51 54 21 6 38 15 38 19 0 4 -16 17 -36 30 -34
20 -36 25 -31 61 6 44 -7 50 -40 16z"/>
<path d="M4375 2560 c-3 -6 -18 -7 -32 -4 -24 6 -25 5 -19 -19 3 -14 2 -29 -4
-32 -19 -12 -10 -35 14 -35 13 0 26 -7 30 -15 8 -21 23 -19 29 6 3 11 15 23
26 26 25 6 27 21 6 29 -8 4 -15 17 -15 30 0 24 -23 33 -35 14z"/>
<path d="M4786 2511 c-3 -5 -14 -7 -24 -4 -15 4 -19 -1 -19 -26 0 -20 5 -31
14 -31 7 0 16 -7 19 -15 5 -12 11 -10 32 12 15 16 20 29 13 31 -6 2 -11 12
-11 23 0 20 -15 26 -24 10z"/>
<path d="M5170 2472 c-17 -13 -31 -17 -45 -11 -33 13 -37 10 -30 -21 5 -21 2
-39 -9 -55 -16 -25 -16 -25 16 -25 22 0 37 -7 46 -20 16 -26 30 -25 34 2 2 13
15 29 32 37 l30 14 -21 17 c-12 9 -23 32 -25 50 l-3 32 -25 -20z"/>
<path d="M3970 2426 c-11 -14 -23 -17 -52 -12 l-37 6 11 -30 c8 -25 7 -34 -6
-49 -23 -25 -20 -31 13 -31 20 0 35 -8 46 -22 13 -20 17 -21 25 -8 5 8 10 20
10 27 0 6 15 16 32 22 l33 12 -27 22 c-16 13 -28 34 -30 51 -3 27 -4 28 -18
12z"/>
<path d="M6089 2384 c-10 -12 -23 -14 -51 -10 -42 7 -42 7 -28 -29 8 -22 6
-32 -11 -53 l-21 -27 36 -3 c25 -2 41 -11 52 -28 21 -32 31 -30 39 5 5 23 15
33 42 42 l36 11 -32 25 c-22 17 -31 33 -31 54 0 32 -11 37 -31 13z"/>
<path d="M6741 2351 c-7 -5 -22 -6 -34 -3 -16 4 -19 2 -14 -12 4 -10 2 -26 -3
-37 -9 -16 -7 -19 9 -19 11 0 25 -8 31 -17 10 -17 12 -16 26 5 9 12 23 22 30
22 19 0 18 16 -1 24 -8 3 -15 15 -15 26 0 22 -7 25 -29 11z"/>
<path d="M4615 2294 c-13 -9 -30 -12 -49 -8 -27 6 -28 5 -22 -21 5 -18 1 -35
-9 -51 -15 -23 -15 -24 15 -24 20 0 34 -8 46 -25 18 -27 34 -25 34 6 0 13 10
24 30 30 35 13 37 20 10 37 -13 8 -20 23 -20 42 0 34 -6 36 -35 14z"/>
<path d="M6447 2223 c-5 -7 -20 -13 -34 -13 -20 0 -24 -4 -20 -20 3 -11 1 -23
-4 -26 -16 -9 -10 -24 10 -24 10 0 21 -7 25 -15 7 -20 26 -19 26 1 0 9 9 18
20 21 24 6 25 16 6 33 -8 6 -16 21 -18 33 -2 15 -5 18 -11 10z"/>
<path d="M5037 2199 c-9 -6 -26 -7 -37 -4 -16 5 -19 2 -18 -22 1 -15 -2 -36
-6 -45 -7 -15 -3 -18 18 -18 15 0 29 -7 32 -15 9 -21 21 -19 27 6 3 11 15 23
26 26 26 7 26 15 2 30 -11 7 -21 21 -23 32 -2 16 -7 18 -21 10z"/>
<path d="M5626 2159 c-23 -18 -31 -19 -58 -10 -39 14 -43 10 -29 -30 9 -26 8
-36 -9 -59 -27 -38 -26 -40 18 -40 30 0 41 -6 57 -30 11 -16 23 -30 27 -30 3
0 10 17 15 38 7 32 14 38 46 46 20 5 37 12 37 15 0 3 -14 15 -30 26 -24 16
-30 27 -30 58 0 43 -7 45 -44 16z"/>
<path d="M6229 2044 c-9 -11 -22 -14 -47 -9 -33 6 -34 6 -27 -24 4 -20 1 -38
-10 -55 l-17 -26 34 0 c26 0 37 -6 50 -27 l17 -28 11 32 c8 22 21 35 43 43
l32 11 -27 20 c-20 14 -28 30 -28 50 0 32 -11 37 -31 13z"/>
<path d="M6715 2034 c-13 -10 -32 -14 -52 -10 -36 5 -38 4 -22 -25 8 -16 7
-26 -5 -44 -22 -33 -21 -35 14 -35 19 0 33 -7 40 -20 14 -27 28 -25 36 4 4 16
17 29 37 36 l32 11 -27 22 c-15 12 -28 34 -30 49 -3 25 -4 26 -23 12z"/>
</g>
</svg>
